<svg width="12" height="12" viewBox="0 0 12 12" fill="none" xmlns="http://www.w3.org/2000/svg">
<g clip-path="url(#clip0_1_833)">
<path d="M4.5 0.5V1.5H7.5V0.5H8.5V1.5H10.5C10.7761 1.5 11 1.72386 11 2V10C11 10.2761 10.7761 10.5 10.5 10.5H1.5C1.22386 10.5 1 10.2761 1 10V2C1 1.72386 1.22386 1.5 1.5 1.5H3.5V0.5H4.5ZM10 5.5H2V9.5H10V5.5ZM4 6.5V7.5H3V6.5H4ZM6.5 6.5V7.5H5.5V6.5H6.5ZM9 6.5V7.5H8V6.5H9ZM3.5 2.5H2V4.5H10V2.5H8.5V3.5H7.5V2.5H4.5V3.5H3.5V2.5Z" fill="#0E0A4E"/>
</g>
<defs>
<clipPath id="clip0_1_833">
<rect width="12" height="12" fill="white"/>
</clipPath>
</defs>
</svg>
