<svg width="14" height="14" viewBox="0 0 14 14" fill="none" xmlns="http://www.w3.org/2000/svg">
<path d="M12.8333 9.91791C12.8327 11.5926 11.6559 12.9923 10.0842 13.3359L9.71202 12.2194C10.4144 12.1048 11.0113 11.6766 11.3545 11.0833H9.91666C9.27231 11.0833 8.74999 10.561 8.74999 9.91662V7.58329C8.74999 6.93894 9.27231 6.41662 9.91666 6.41662H11.6305C11.3435 4.11461 9.37976 2.33329 6.99999 2.33329C4.62021 2.33329 2.65648 4.11461 2.36943 6.41662H4.08332C4.72766 6.41662 5.24999 6.93894 5.24999 7.58329V9.91662C5.24999 10.561 4.72766 11.0833 4.08332 11.0833H2.33332C1.68899 11.0833 1.16666 10.561 1.16666 9.91662V6.99996C1.16666 3.7783 3.77833 1.16663 6.99999 1.16663C10.2216 1.16663 12.8333 3.7783 12.8333 6.99996V7.58253V7.58329V9.91662V9.91791Z" fill="#0062CC"/>
</svg>
