<svg width="14" height="14" viewBox="0 0 14 14" fill="none" xmlns="http://www.w3.org/2000/svg">
<path d="M9.91666 1.75004H12.25C12.5722 1.75004 12.8333 2.01121 12.8333 2.33337V11.6667C12.8333 11.9889 12.5722 12.25 12.25 12.25H1.74999C1.42783 12.25 1.16666 11.9889 1.16666 11.6667V2.33337C1.16666 2.01121 1.42783 1.75004 1.74999 1.75004H4.08332V0.583374H5.24999V1.75004H8.74999V0.583374H9.91666V1.75004ZM2.33332 5.25004V11.0834H11.6667V5.25004H2.33332ZM3.49999 6.41671H4.66666V7.58337H3.49999V6.41671ZM6.41666 6.41671H7.58332V7.58337H6.41666V6.41671ZM9.33332 6.41671H10.5V7.58337H9.33332V6.41671Z" fill="#0062CC"/>
</svg>
