<svg width="12" height="12" viewBox="0 0 12 12" fill="none" xmlns="http://www.w3.org/2000/svg">
<path d="M6 5.5C7.3807 5.5 8.5 6.6193 8.5 8V11H7.5V8C7.5 7.20115 6.87555 6.54815 6.08815 6.50255L6 6.5C5.20115 6.5 4.54817 7.12445 4.50254 7.91185L4.5 8V11H3.5V8C3.5 6.6193 4.61929 5.5 6 5.5ZM2.75 7C2.88943 7 3.02504 7.0163 3.15505 7.0471C3.07101 7.297 3.01936 7.561 3.00448 7.83465L3 8L3.00035 8.0428C2.94378 8.0228 2.88411 8.00935 2.82223 8.00345L2.75 8C2.36015 8 2.03977 8.29745 2.00343 8.67775L2 8.75V11H1V8.75C1 7.7835 1.7835 7 2.75 7ZM9.25 7C10.2165 7 11 7.7835 11 8.75V11H10V8.75C10 8.36015 9.70255 8.0398 9.32225 8.00345L9.25 8C9.1624 8 9.0783 8.015 9.00015 8.0426L9 8C9 7.66715 8.9458 7.347 8.84575 7.0478C8.97495 7.0163 9.11055 7 9.25 7ZM2.75 4C3.44036 4 4 4.55964 4 5.25C4 5.94035 3.44036 6.5 2.75 6.5C2.05964 6.5 1.5 5.94035 1.5 5.25C1.5 4.55964 2.05964 4 2.75 4ZM9.25 4C9.94035 4 10.5 4.55964 10.5 5.25C10.5 5.94035 9.94035 6.5 9.25 6.5C8.55965 6.5 8 5.94035 8 5.25C8 4.55964 8.55965 4 9.25 4ZM2.75 5C2.61193 5 2.5 5.11195 2.5 5.25C2.5 5.38805 2.61193 5.5 2.75 5.5C2.88807 5.5 3 5.38805 3 5.25C3 5.11195 2.88807 5 2.75 5ZM9.25 5C9.11195 5 9 5.11195 9 5.25C9 5.38805 9.11195 5.5 9.25 5.5C9.38805 5.5 9.5 5.38805 9.5 5.25C9.5 5.11195 9.38805 5 9.25 5ZM6 1C7.10455 1 8 1.89543 8 3C8 4.10457 7.10455 5 6 5C4.89543 5 4 4.10457 4 3C4 1.89543 4.89543 1 6 1ZM6 2C5.4477 2 5 2.44772 5 3C5 3.55228 5.4477 4 6 4C6.5523 4 7 3.55228 7 3C7 2.44772 6.5523 2 6 2Z" fill="#0E0A4E"/>
</svg>
