<svg width="12" height="12" viewBox="0 0 12 12" fill="none" xmlns="http://www.w3.org/2000/svg">
<path d="M6 10.4497L8.47485 7.97485C9.8417 6.60805 9.8417 4.39196 8.47485 3.02512C7.10805 1.65829 4.89196 1.65829 3.52513 3.02512C2.15829 4.39196 2.15829 6.60805 3.52513 7.97485L6 10.4497ZM6 11.8639L2.81802 8.682C1.06066 6.9246 1.06066 4.07538 2.81802 2.31802C4.57538 0.56066 7.4246 0.56066 9.182 2.31802C10.9394 4.07538 10.9394 6.9246 9.182 8.682L6 11.8639ZM6 6.5C6.5523 6.5 7 6.0523 7 5.5C7 4.94771 6.5523 4.5 6 4.5C5.4477 4.5 5 4.94771 5 5.5C5 6.0523 5.4477 6.5 6 6.5ZM6 7.5C4.89543 7.5 4 6.60455 4 5.5C4 4.39543 4.89543 3.5 6 3.5C7.10455 3.5 8 4.39543 8 5.5C8 6.60455 7.10455 7.5 6 7.5Z" fill="black"/>
</svg>
