<svg width="14" height="14" viewBox="0 0 14 14" fill="none" xmlns="http://www.w3.org/2000/svg">
<path d="M10.8356 7.99832C11.1266 7.99832 11.3594 7.75093 11.3594 7.47448C11.3594 7.18346 11.1266 6.95071 10.8356 6.95071C10.5446 6.95071 10.3118 7.18346 10.3118 7.47448C10.3118 7.76551 10.5446 7.99832 10.8356 7.99832ZM8.25399 7.99832C8.54496 7.99832 8.77777 7.75093 8.77777 7.47448C8.77777 7.18346 8.54496 6.95071 8.25399 6.95071C7.96297 6.95071 7.73016 7.18346 7.73016 7.47448C7.73016 7.76551 7.96297 7.99832 8.25399 7.99832ZM12.0849 10.9384C12.0133 10.9814 11.9703 11.0531 11.9846 11.1535C11.9846 11.1821 11.9846 11.2108 11.9989 11.2394C12.0563 11.4832 12.1708 11.8703 12.1708 11.8846C12.1708 11.9276 12.1852 11.9562 12.1852 11.9849C12.1852 12.0566 12.1279 12.114 12.0563 12.114C12.0276 12.114 12.0133 12.0996 11.9846 12.0853L11.1394 11.5978C11.0821 11.5692 11.0104 11.5405 10.9388 11.5405C10.8959 11.5405 10.8529 11.5405 10.8242 11.5548C10.4231 11.6695 10.0076 11.7269 9.56352 11.7269C7.42887 11.7269 5.70976 10.2933 5.70976 8.51568C5.70976 6.73803 7.42887 5.30442 9.56352 5.30442C11.6981 5.30442 13.4173 6.73803 13.4173 8.51568C13.4173 9.47613 12.9015 10.3506 12.0849 10.9384ZM9.72633 4.72358C9.67225 4.72193 9.618 4.72109 9.56352 4.72109C7.12828 4.72109 5.12642 6.3896 5.12642 8.51568C5.12642 8.83861 5.17261 9.15098 5.25949 9.44854H5.20748C4.69056 9.44854 4.17364 9.36268 3.69979 9.23393C3.65672 9.21958 3.61364 9.21958 3.57057 9.21958C3.48441 9.21958 3.39826 9.24823 3.32646 9.29116L2.30698 9.87782C2.27826 9.89217 2.24954 9.90646 2.22082 9.90646C2.13467 9.90646 2.06288 9.83494 2.06288 9.74908C2.06288 9.70614 2.07724 9.6775 2.0916 9.63457C2.10595 9.62028 2.23518 9.14807 2.30698 8.86188C2.30698 8.83324 2.32134 8.79031 2.32134 8.76173C2.32134 8.64722 2.2639 8.56135 2.19211 8.50413C1.20134 7.80296 0.583908 6.75838 0.583908 5.59928C0.583908 3.46715 2.66595 1.75 5.22185 1.75C7.41749 1.75 9.26345 3.01499 9.72633 4.72358ZM6.71994 4.96769C7.05408 4.96769 7.31862 4.68925 7.31862 4.36905C7.31862 4.03492 7.05408 3.77041 6.71994 3.77041C6.38581 3.77041 6.12133 4.03492 6.12133 4.36905C6.12133 4.70317 6.38581 4.96769 6.71994 4.96769ZM3.65193 4.96769C3.98606 4.96769 4.25057 4.68925 4.25057 4.36905C4.25057 4.03492 3.98606 3.77041 3.65193 3.77041C3.31781 3.77041 3.05329 4.03492 3.05329 4.36905C3.05329 4.70317 3.31781 4.96769 3.65193 4.96769Z" fill="#0062CC"/>
</svg>
