<svg width="28" height="28" viewBox="0 0 28 28" fill="none" xmlns="http://www.w3.org/2000/svg">
<path d="M14.0012 5.28329C16.7417 2.82333 20.9767 2.905 23.6164 5.55025C26.2562 8.19551 26.3468 12.4098 23.8917 15.1585L13.9999 25.0658L4.10828 15.1585C1.65323 12.4098 1.745 8.18885 4.38359 5.55025C7.02517 2.90868 11.2527 2.81968 14.0012 5.28329ZM21.9648 7.19845C20.2159 5.44593 17.3922 5.37485 15.5598 7.01968L14.0022 8.41778L12.4438 7.02078C10.6061 5.37363 7.78757 5.44609 6.0335 7.20017C4.29547 8.9382 4.20821 11.7219 5.80992 13.5604L13.9999 21.7634L22.1901 13.5604C23.7924 11.7212 23.7055 8.94279 21.9648 7.19845Z" fill="#8C8C8C"/>
</svg>
