<svg width="14" height="14" viewBox="0 0 14 14" fill="none" xmlns="http://www.w3.org/2000/svg">
<path d="M6.99999 5.83329C8.28863 5.83329 9.33332 4.78863 9.33332 3.49996C9.33332 2.21129 8.28863 1.16663 6.99999 1.16663C5.71133 1.16663 4.66666 2.21129 4.66666 3.49996C4.66666 4.78863 5.71133 5.83329 6.99999 5.83329ZM3.20832 7.58329C4.01374 7.58329 4.66666 6.93037 4.66666 6.12496C4.66666 5.31955 4.01374 4.66663 3.20832 4.66663C2.40291 4.66663 1.74999 5.31955 1.74999 6.12496C1.74999 6.93037 2.40291 7.58329 3.20832 7.58329ZM12.25 6.12496C12.25 6.93037 11.5971 7.58329 10.7917 7.58329C9.98625 7.58329 9.33332 6.93037 9.33332 6.12496C9.33332 5.31955 9.98625 4.66663 10.7917 4.66663C11.5971 4.66663 12.25 5.31955 12.25 6.12496ZM6.99999 6.41663C8.61081 6.41663 9.91666 7.72248 9.91666 9.33329V12.8333H4.08332V9.33329C4.08332 7.72248 5.38916 6.41663 6.99999 6.41663ZM2.91666 9.33324C2.91666 8.92904 2.97538 8.53856 3.08476 8.16989L2.98586 8.17853C1.96292 8.28936 1.16666 9.15584 1.16666 10.2082V12.8332H2.91666V9.33324ZM12.8333 12.8332V10.2082C12.8333 9.12201 11.9851 8.23389 10.9152 8.16989C11.0246 8.53856 11.0833 8.92904 11.0833 9.33324V12.8332H12.8333Z" fill="#0062CC"/>
</svg>
