<svg width="14" height="14" viewBox="0 0 14 14" fill="none" xmlns="http://www.w3.org/2000/svg">
<path d="M10.7123 10.129L7 13.8412L3.28769 10.129C1.23744 8.07866 1.23744 4.75457 3.28769 2.70432C5.33794 0.654063 8.66203 0.654063 10.7123 2.70432C12.7626 4.75457 12.7626 8.07866 10.7123 10.129ZM7 8.74996C8.28864 8.74996 9.33333 7.70527 9.33333 6.41663C9.33333 5.12796 8.28864 4.08329 7 4.08329C5.71134 4.08329 4.66667 5.12796 4.66667 6.41663C4.66667 7.70527 5.71134 8.74996 7 8.74996ZM7 7.58329C6.35565 7.58329 5.83333 7.06098 5.83333 6.41663C5.83333 5.77229 6.35565 5.24996 7 5.24996C7.64435 5.24996 8.16667 5.77229 8.16667 6.41663C8.16667 7.06098 7.64435 7.58329 7 7.58329Z" fill="#0062CC"/>
</svg>
